<svg xmlns="http://www.w3.org/2000/svg" xmlns:xlink="http://www.w3.org/1999/xlink" width="218.417" height="54.5" viewBox="0 0 218.417 54.5">
  <defs>
    <clipPath id="clip-path">
      <path id="Path_9" data-name="Path 9" d="M1492.323,47.979a26.567,26.567,0,0,0,7.234-9.255A26.9,26.9,0,0,0,1506.811,48a22.621,22.621,0,0,1-14.488-.021m4.644-18.14a21.572,21.572,0,0,1-18.845,18.86,21.572,21.572,0,0,1,18.845-18.86m5.281,0a21.592,21.592,0,0,1,18.865,18.86,21.593,21.593,0,0,1-18.865-18.86m-24.825-2.674a21.661,21.661,0,0,1,1.295-7.281,26.718,26.718,0,0,0,9.289,7.26,26.574,26.574,0,0,0-9.289,7.26,21.519,21.519,0,0,1-1.295-7.24m33.7-.021a26.717,26.717,0,0,0,9.268-7.26,25.235,25.235,0,0,1,1.295,7.24,21.658,21.658,0,0,1-1.295,7.281,26.719,26.719,0,0,0-9.268-7.26m9.967-21.554a21.593,21.593,0,0,1-18.845,18.86,21.592,21.592,0,0,1,18.845-18.86m-43.073,0a21.613,21.613,0,0,1,18.947,18.86,21.572,21.572,0,0,1-18.947-18.86m14.3.7a22.621,22.621,0,0,1,14.468.021,26.732,26.732,0,0,0-7.234,9.255,26.732,26.732,0,0,0-7.234-9.276m2.4-5.862c-11.648,4.26-8.307.2-19.172-.1-5.811.455-1.439,11.032-.165,14.274a27.068,27.068,0,0,0,0,25.092c-1.315,3.307-5.618,13.79.164,14.294,10.981-.291,7.46-4.258,19.156.074a27,27,0,0,0,14.415-1.31c2.964-2.173,5.411-.04,8.554.627,12.573,3.664,8.879-6.1,6.005-13.686a26.758,26.758,0,0,0,0-25.091c2.913-7.489,6.471-17.305-6.04-13.6-3.151.673-5.587,2.83-8.575.7A27.45,27.45,0,0,0,1494.726.428" transform="translate(-1472.306)" fill="#e6007f"/>
    </clipPath>
  </defs>
  <g id="Group_584" data-name="Group 584" transform="translate(-2300 173)">
    <g id="Group_581" data-name="Group 581" transform="translate(2300 -173)">
      <g id="Group_3" data-name="Group 3" clip-path="url(#clip-path)">
        <rect id="Rectangle_2" data-name="Rectangle 2" width="60.508" height="59.747" transform="translate(-2.563 -2.706)" fill="#e6007f"/>
      </g>
    </g>
    <g id="Group_583" data-name="Group 583" transform="translate(0 0)">
      <g id="Group_582" data-name="Group 582" transform="translate(0 80.673)">
        <path id="Path_1" data-name="Path 1" d="M732.939,725.178h-6.9l-3.783-4.3c-9.373,4.16-21.115-.262-23.745-10.552-3.255-12.739,7.4-23.107,20.073-20.622,11.184,2.193,16.5,14.789,10.943,24.607a22.383,22.383,0,0,1-2.727,3.552Zm-21.473-16.865h6.9l3.692,4.256c.313.206.93-.753,1.095-1.005,4.758-7.286-1.19-17.118-10.049-15.62-9.5,1.606-11.179,14.86-2.76,19a9.667,9.667,0,0,0,7.254.551Z" transform="translate(1674.636 -942.005)"/>
        <path id="Path_2" data-name="Path 2" d="M2314.778,689.479c12.257-.968,21.21,9.448,17.805,21.422-4.132,14.535-25.655,15.636-31.646,1.947a16.529,16.529,0,0,1,13.841-23.369m1.115,6.412c-13.06.7-12.156,20.661.941,20.172,13.061-.488,12.353-20.882-.941-20.172" transform="translate(184.799 -942.083)"/>
        <path id="Path_3" data-name="Path 3" d="M1862.625,731.343h-7.669l-6-10.732H1844.5v10.732h-6.832V699.7h14.152a14.8,14.8,0,0,1,3.313.869c8.122,3.214,8.561,14.857.8,18.715l-.124.254ZM1844.5,714.2h6.484a6.131,6.131,0,0,0,2.579-1.325,4.2,4.2,0,0,0-3.137-6.9H1844.5Z" transform="translate(614.387 -951.655)"/>
        <path id="Path_4" data-name="Path 4" d="M1259.968,731.224l12.339-31.5,6.422-.148,12.89,31.647h-7.32l-2.389-5.974-12.463.048-2.3,5.926Zm19.8-11.986-4.181-11.15-4.045,11.15Z" transform="translate(1151.79 -951.536)"/>
        <path id="Path_13585" data-name="Path 13585" d="M-68.723-3.549a1.7,1.7,0,0,1,1.009.595,1.667,1.667,0,0,1,.385,1.092A1.713,1.713,0,0,1-67.9-.5a2.463,2.463,0,0,1-1.667.5h-2.74V-6.884h2.691a2.4,2.4,0,0,1,1.584.463,1.573,1.573,0,0,1,.551,1.272,1.585,1.585,0,0,1-.341,1.058A1.654,1.654,0,0,1-68.723-3.549ZM-71.2-3.92h1.375a1.3,1.3,0,0,0,.892-.273.965.965,0,0,0,.307-.76.953.953,0,0,0-.307-.751,1.367,1.367,0,0,0-.931-.273H-71.2Zm1.4,3a1.493,1.493,0,0,0,.98-.288.988.988,0,0,0,.346-.8,1,1,0,0,0-.351-.809,1.5,1.5,0,0,0-.985-.293H-71.2V-.917Zm4.621-5.07V-3.9h2.535v.858h-2.535V-.907h2.828V0h-3.939V-6.884h3.939v.9Zm4.885,5.08h3.344V0h-4.583V-.868l3.276-5.109h-3.208v-.907h4.465v.868Zm8.95-.926a1.889,1.889,0,0,1-.244.941,1.772,1.772,0,0,1-.741.7,2.579,2.579,0,0,1-1.219.263A3.049,3.049,0,0,1-54.8-.18a2.189,2.189,0,0,1-.887-.7,1.979,1.979,0,0,1-.38-1.034h1.19a1.22,1.22,0,0,0,.385.77,1.25,1.25,0,0,0,.9.322,1.073,1.073,0,0,0,.785-.273.941.941,0,0,0,.278-.7.9.9,0,0,0-.2-.609,1.436,1.436,0,0,0-.507-.375q-.3-.136-.829-.312a7.223,7.223,0,0,1-1.048-.41A1.906,1.906,0,0,1-55.8-4.1a1.7,1.7,0,0,1-.283-1.024,1.746,1.746,0,0,1,.273-.975,1.775,1.775,0,0,1,.78-.648,2.815,2.815,0,0,1,1.17-.229,2.561,2.561,0,0,1,1.672.507,1.911,1.911,0,0,1,.707,1.326h-1.2a1.169,1.169,0,0,0-.366-.668,1.145,1.145,0,0,0-.814-.278,1.125,1.125,0,0,0-.751.239.85.85,0,0,0-.283.687.864.864,0,0,0,.195.58,1.356,1.356,0,0,0,.492.361q.3.132.814.307a7.153,7.153,0,0,1,1.068.414,1.934,1.934,0,0,1,.7.609A1.764,1.764,0,0,1-51.339-1.833ZM-45.8-6.884v.9h-1.921V0h-1.121V-5.987h-1.911v-.9Zm4.933,5.392h-2.905L-44.3,0h-1.19l2.535-6.776h1.277L-39.151,0h-1.189Zm-.312-.858L-42.32-5.567-43.461-2.35ZM-34.705,0l-1.716-2.75h-.79V0h-1.111V-6.884h2.428a2.514,2.514,0,0,1,1.789.575A1.994,1.994,0,0,1-33.5-4.787a1.937,1.937,0,0,1-.453,1.326,2.159,2.159,0,0,1-1.311.663l1.8,2.8Zm-2.506-3.539h1.229q1.345,0,1.346-1.19a1.172,1.172,0,0,0-.327-.882,1.418,1.418,0,0,0-1.019-.317h-1.229ZM-29.3-6.971a3.392,3.392,0,0,1,1.731.449A3.205,3.205,0,0,1-26.354-5.27a3.7,3.7,0,0,1,.444,1.818,3.7,3.7,0,0,1-.444,1.818A3.24,3.24,0,0,1-27.573-.375,3.364,3.364,0,0,1-29.3.078a3.383,3.383,0,0,1-1.74-.453,3.275,3.275,0,0,1-1.224-1.258,3.67,3.67,0,0,1-.448-1.818,3.67,3.67,0,0,1,.448-1.818,3.24,3.24,0,0,1,1.224-1.253A3.411,3.411,0,0,1-29.3-6.971Zm0,1.034a2.293,2.293,0,0,0-1.18.3,2.06,2.06,0,0,0-.8.868,2.866,2.866,0,0,0-.288,1.316,2.866,2.866,0,0,0,.288,1.316,2.06,2.06,0,0,0,.8.868,2.293,2.293,0,0,0,1.18.3,2.248,2.248,0,0,0,1.165-.3,2.07,2.07,0,0,0,.8-.868,2.866,2.866,0,0,0,.288-1.316,2.866,2.866,0,0,0-.288-1.316,2.07,2.07,0,0,0-.8-.868A2.248,2.248,0,0,0-29.3-5.938Zm9.038,4.1a1.889,1.889,0,0,1-.244.941,1.772,1.772,0,0,1-.741.7,2.579,2.579,0,0,1-1.219.263A3.049,3.049,0,0,1-23.727-.18a2.189,2.189,0,0,1-.887-.7,1.979,1.979,0,0,1-.38-1.034H-23.8a1.22,1.22,0,0,0,.385.77,1.25,1.25,0,0,0,.9.322,1.073,1.073,0,0,0,.785-.273.941.941,0,0,0,.278-.7.9.9,0,0,0-.2-.609,1.436,1.436,0,0,0-.507-.375q-.3-.136-.829-.312a7.223,7.223,0,0,1-1.048-.41,1.906,1.906,0,0,1-.687-.595,1.7,1.7,0,0,1-.283-1.024,1.746,1.746,0,0,1,.273-.975,1.775,1.775,0,0,1,.78-.648,2.815,2.815,0,0,1,1.17-.229,2.561,2.561,0,0,1,1.672.507,1.911,1.911,0,0,1,.707,1.326h-1.2a1.169,1.169,0,0,0-.366-.668,1.145,1.145,0,0,0-.814-.278,1.125,1.125,0,0,0-.751.239.85.85,0,0,0-.283.687.864.864,0,0,0,.195.58,1.356,1.356,0,0,0,.492.361q.3.132.814.307a7.153,7.153,0,0,1,1.068.414,1.934,1.934,0,0,1,.7.609A1.764,1.764,0,0,1-20.265-1.833Zm5.538-5.051v.9h-1.921V0h-1.121V-5.987H-19.68v-.9ZM-8.331,0H-9.443l-3.344-5.08V0H-13.9V-6.874h1.111l3.344,5.1v-5.1h1.111Zm2.457-5.987V-3.9h2.535v.858H-5.874V-.907h2.827V0H-6.986V-6.884h3.939v.9ZM-3.466-8.4-5.621-7.3v-.78l2.155-1.189Zm12.5,1.521L7.317,0H5.952L4.5-5.324,3.047,0H1.682L-.034-6.884H1.185l1.189,5.6,1.511-5.6H5.114l1.511,5.6,1.19-5.6Zm2.106.9V-3.9h2.535v.858H11.139V-.907h2.827V0H10.028V-6.884h3.939v.9Zm7.5,2.438a1.7,1.7,0,0,1,1.009.595,1.667,1.667,0,0,1,.385,1.092A1.713,1.713,0,0,1,19.456-.5a2.463,2.463,0,0,1-1.667.5h-2.74V-6.884H17.74a2.4,2.4,0,0,1,1.584.463,1.573,1.573,0,0,1,.551,1.272,1.585,1.585,0,0,1-.341,1.058A1.654,1.654,0,0,1,18.637-3.549Zm-2.476-.37h1.375a1.3,1.3,0,0,0,.892-.273.965.965,0,0,0,.307-.76.953.953,0,0,0-.307-.751,1.367,1.367,0,0,0-.931-.273H16.161Zm1.4,3a1.493,1.493,0,0,0,.98-.288.988.988,0,0,0,.346-.8,1,1,0,0,0-.351-.809,1.5,1.5,0,0,0-.985-.293H16.161V-.917Zm6.7-6.055a3.392,3.392,0,0,1,1.731.449A3.205,3.205,0,0,1,27.212-5.27a3.7,3.7,0,0,1,.444,1.818,3.7,3.7,0,0,1-.444,1.818A3.24,3.24,0,0,1,25.993-.375a3.364,3.364,0,0,1-1.731.453,3.383,3.383,0,0,1-1.74-.453A3.275,3.275,0,0,1,21.3-1.633a3.67,3.67,0,0,1-.448-1.818A3.67,3.67,0,0,1,21.3-5.27a3.24,3.24,0,0,1,1.224-1.253A3.411,3.411,0,0,1,24.263-6.971Zm0,1.034a2.293,2.293,0,0,0-1.18.3,2.06,2.06,0,0,0-.8.868,2.866,2.866,0,0,0-.288,1.316,2.866,2.866,0,0,0,.288,1.316,2.06,2.06,0,0,0,.8.868,2.293,2.293,0,0,0,1.18.3,2.248,2.248,0,0,0,1.165-.3,2.07,2.07,0,0,0,.8-.868,2.866,2.866,0,0,0,.288-1.316,2.866,2.866,0,0,0-.288-1.316,2.07,2.07,0,0,0-.8-.868A2.248,2.248,0,0,0,24.263-5.938Zm5.206-.946L31.449-1.19l1.989-5.694h1.209L32.16,0H30.737L28.26-6.884Zm7.117.9V-3.9h2.535v.858H36.587V-.907h2.828V0H35.475V-6.884h3.939v.9ZM39-8.4,36.84-7.3v-.78L39-9.272ZM46.4,0,44.679-2.75h-.79V0H42.778V-6.884h2.428a2.514,2.514,0,0,1,1.789.575A1.994,1.994,0,0,1,47.6-4.787a1.937,1.937,0,0,1-.453,1.326A2.159,2.159,0,0,1,45.84-2.8l1.8,2.8ZM43.89-3.539h1.229q1.345,0,1.346-1.19a1.172,1.172,0,0,0-.327-.882,1.418,1.418,0,0,0-1.019-.317H43.89Zm2.72-4.68-1.385.809-1.4-.809v-.76l1.4.819L46.61-8.98Zm3.11,2.233V-3.9h2.535v.858H49.72V-.907h2.828V0H48.609V-6.884h3.939v.9Zm8.434,4.154a1.889,1.889,0,0,1-.244.941,1.772,1.772,0,0,1-.741.7A2.579,2.579,0,0,1,55.95.068,3.049,3.049,0,0,1,54.693-.18a2.189,2.189,0,0,1-.887-.7,1.979,1.979,0,0,1-.38-1.034h1.19a1.22,1.22,0,0,0,.385.77,1.25,1.25,0,0,0,.9.322,1.073,1.073,0,0,0,.785-.273.941.941,0,0,0,.278-.7.9.9,0,0,0-.2-.609,1.436,1.436,0,0,0-.507-.375q-.3-.136-.829-.312a7.223,7.223,0,0,1-1.048-.41,1.906,1.906,0,0,1-.687-.595,1.7,1.7,0,0,1-.283-1.024,1.746,1.746,0,0,1,.273-.975,1.775,1.775,0,0,1,.78-.648,2.815,2.815,0,0,1,1.17-.229,2.561,2.561,0,0,1,1.672.507,1.911,1.911,0,0,1,.707,1.326h-1.2a1.169,1.169,0,0,0-.366-.668,1.145,1.145,0,0,0-.814-.278,1.125,1.125,0,0,0-.751.239.85.85,0,0,0-.283.687.864.864,0,0,0,.195.58,1.356,1.356,0,0,0,.492.361q.3.132.814.307a7.153,7.153,0,0,1,1.068.414,1.934,1.934,0,0,1,.7.609A1.764,1.764,0,0,1,58.154-1.833Zm-.975-6.386-1.384.809-1.4-.809v-.76l1.4.819,1.384-.819Zm3.2,2.233V-3.9h2.535v.858H60.377V-.907H63.2V0H59.265V-6.884H63.2v.9ZM69.854,0H68.742L65.4-5.08V0H64.287V-6.874H65.4l3.344,5.1v-5.1h1.111Zm2.457-6.884V0H71.2V-6.884ZM73.305-8.4,71.151-7.3v-.78l2.155-1.189Z" transform="translate(2445.111 -202.5)"/>
      </g>
    </g>
  </g>
</svg>
